<svg xmlns="http://www.w3.org/2000/svg" viewBox="0 0 256 256">
  <defs>
    <linearGradient id="t" x1="0" y1="0" x2="1" y2="1">
      <stop offset="0" stop-color="#56b3fa"/><stop offset="0.55" stop-color="#7c6cf0"/><stop offset="1" stop-color="#b46cf0"/>
    </linearGradient>
  </defs>
  <rect width="256" height="256" rx="56" fill="url(#t)"/>
  <path d="M129.48864997612253 203.0Q103.20770817012578 203.0 87.72864339639852 188.0618131868132Q72.24957862267128 173.12362637362637 72.24957862267128 144.9471405364655V111.05285946353452Q72.24957862267128 82.87637362637363 87.72864339639852 67.93818681318682Q103.20770817012578 53.0 129.48864997612253 53.0Q155.5635478260753 53.0 169.65698460170202 67.38187819260818Q183.75042137732873 81.76375638521635 183.75042137732873 106.74661120739613V107.9107645894145H161.72399047180846V106.06665609171102Q161.72399047180846 91.56128231509702 153.82226009159297 82.27392393678099Q145.92052971137747 72.98656555846497 129.48864997612253 72.98656555846497Q113.11859348842077 72.98656555846497 103.83123511010474 83.0002213362809Q94.54387673178871 93.01387711409684 94.54387673178871 110.6407715514466V145.3592284485534Q94.54387673178871 162.85218928410455 103.83123511010474 172.9328118628198Q113.11859348842077 183.01343444153503 129.48864997612253 183.01343444153503Q145.92052971137747 183.01343444153503 153.82226009159297 173.6591092623197Q161.72399047180846 164.30478408310438 161.72399047180846 149.93334390828898V146.44088376223385H183.75042137732873V149.2533887926039Q183.75042137732873 174.23624361478366 169.65698460170202 188.61812180739184Q155.5635478260753 203.0 129.48864997612253 203.0Z" fill="#ffffff"/>
</svg>
