<svg xmlns="http://www.w3.org/2000/svg" viewBox="0 0 5539 954">
  <defs>
    <linearGradient id="g" gradientUnits="userSpaceOnUse"
      x1="120" y1="120" x2="5419" y2="834">
      <stop offset="0" stop-color="#56b3fa"/>
      <stop offset="0.42" stop-color="#7c6cf0"/>
      <stop offset="0.78" stop-color="#b46cf0"/>
      <stop offset="1" stop-color="#cf63ee"/>
    </linearGradient>
  </defs>
  <path d="M175,220 L435,470 L175,720" fill="none" stroke="url(#g)" stroke-width="110" stroke-linecap="round" stroke-linejoin="round"/>
  <g fill="url(#g)"><path d="M945.4498291015625 834.0Q873.7998046875 834.0 816.3497314453125 803.8250122070312Q758.899658203125 773.6500244140625 725.599609375 716.6500244140625Q692.299560546875 659.6500244140625 692.299560546875 580.0499267578125V567.4498291015625Q692.299560546875 487.499755859375 725.599609375 430.67474365234375Q758.899658203125 373.8497314453125 816.3497314453125 343.67474365234375Q873.7998046875 313.499755859375 945.4498291015625 313.499755859375Q1016.099853515625 313.499755859375 1066.2249145507812 339.02471923828125Q1116.3499755859375 364.5496826171875 1146.4500732421875 407.69970703125Q1176.5501708984375 450.8497314453125 1185.500244140625 503.0499267578125L1085.5487060546875 524.1502685546875Q1081.19873046875 491.00048828125 1065.098876953125 464.02569580078125Q1048.9990234375 437.0509033203125 1019.8242797851562 421.12603759765625Q990.6495361328125 405.201171875 947.39990234375 405.201171875Q904.1502685546875 405.201171875 869.6255493164062 424.5009765625Q835.100830078125 443.80078125 815.1510009765625 480.50048828125Q795.201171875 517.2001953125 795.201171875 569.099853515625V578.39990234375Q795.201171875 630.299560546875 815.1510009765625 666.999267578125Q835.100830078125 703.698974609375 869.6255493164062 722.998779296875Q904.1502685546875 742.298583984375 947.39990234375 742.298583984375Q1012.4493408203125 742.298583984375 1046.3240356445312 708.598876953125Q1080.19873046875 674.899169921875 1088.898681640625 622.699462890625L1188.8502197265625 645.7498779296875Q1177.2501220703125 696.6500244140625 1146.800048828125 739.800048828125Q1116.3499755859375 782.9500732421875 1066.2249145507812 808.4750366210938Q1016.099853515625 834.0 945.4498291015625 834.0Z"/><path d="M1472.5496826171875 834.0Q1420.2496337890625 834.0 1378.4246215820312 815.8499755859375Q1336.599609375 797.699951171875 1312.2745971679688 762.7249145507812Q1287.9495849609375 727.7498779296875 1287.9495849609375 677.7998046875Q1287.9495849609375 627.499755859375 1312.2745971679688 593.8746948242188Q1336.599609375 560.2496337890625 1379.2246704101562 543.2745971679688Q1421.8497314453125 526.299560546875 1475.7498779296875 526.299560546875H1626.4488525390625V494.4498291015625Q1626.4488525390625 451.0504150390625 1600.2491455078125 424.87567138671875Q1574.0494384765625 398.700927734375 1520.099853515625 398.700927734375Q1467.1502685546875 398.700927734375 1439.0756225585938 423.70068359375Q1411.0009765625 448.700439453125 1401.901123046875 489.3499755859375L1306.19970703125 458.0494384765625Q1318.19970703125 418.299560546875 1344.5247192382812 385.7496337890625Q1370.8497314453125 353.19970703125 1414.8247680664062 333.3497314453125Q1458.7998046875 313.499755859375 1521.39990234375 313.499755859375Q1617.300048828125 313.499755859375 1672.0252075195312 362.1497802734375Q1726.7503662109375 410.7998046875 1726.7503662109375 501.3499755859375V704.19873046875Q1726.7503662109375 734.19873046875 1754.7503662109375 734.19873046875H1797.2001953125V820.0H1720.19970703125Q1685.299560546875 820.0 1663.3994140625 801.8250122070312Q1641.499267578125 783.6500244140625 1641.499267578125 752.9500732421875V749.8502197265625H1625.6490478515625Q1618.499267578125 765.3499755859375 1602.2244262695312 785.3749389648438Q1585.9495849609375 805.39990234375 1554.899658203125 819.699951171875Q1523.8497314453125 834.0 1472.5496826171875 834.0ZM1488.2501220703125 748.798828125Q1549.6495361328125 748.798828125 1588.0491943359375 713.3492431640625Q1626.4488525390625 677.899658203125 1626.4488525390625 616.300537109375V605.6005859375H1481.9500732421875Q1441.00048828125 605.6005859375 1415.9258422851562 623.2254028320312Q1390.8511962890625 640.8502197265625 1390.8511962890625 674.8497314453125Q1390.8511962890625 708.8492431640625 1416.9258422851562 728.8240356445312Q1443.00048828125 748.798828125 1488.2501220703125 748.798828125Z"/><path d="M2112.79931640625 834.0Q2051.699462890625 834.0 1999.6744995117188 804.1500244140625Q1947.6495361328125 774.300048828125 1916.4745483398438 717.4750366210938Q1885.299560546875 660.6500244140625 1885.299560546875 581.0499267578125V566.4498291015625Q1885.299560546875 486.8497314453125 1916.299560546875 430.02471923828125Q1947.299560546875 373.19970703125 1999.1744995117188 343.3497314453125Q2051.0494384765625 313.499755859375 2112.79931640625 313.499755859375Q2160.9490966796875 313.499755859375 2193.7239379882812 325.399658203125Q2226.498779296875 337.299560546875 2247.0736694335938 355.57440185546875Q2267.6485595703125 373.8492431640625 2278.698486328125 394.299072265625H2294.5986328125V120.0H2397.500244140625V820.0H2296.5986328125V749.8507080078125H2280.698486328125Q2262.298583984375 782.0504150390625 2223.6488037109375 808.0252075195312Q2184.9990234375 834.0 2112.79931640625 834.0ZM2142.39990234375 743.5986328125Q2209.1492919921875 743.5986328125 2252.5239868164062 700.6740112304688Q2295.898681640625 657.7493896484375 2295.898681640625 578.39990234375V569.099853515625Q2295.898681640625 489.7503662109375 2252.8489990234375 446.82574462890625Q2209.79931640625 403.901123046875 2142.39990234375 403.901123046875Q2076.00048828125 403.901123046875 2032.4508056640625 446.82574462890625Q1988.901123046875 489.7503662109375 1988.901123046875 569.099853515625V578.39990234375Q1988.901123046875 657.7493896484375 2032.4508056640625 700.6740112304688Q2076.00048828125 743.5986328125 2142.39990234375 743.5986328125Z"/><path d="M2750.599609375 828.699951171875Q2694.699462890625 828.699951171875 2650.8494873046875 803.7748413085938Q2606.99951171875 778.8497314453125 2582.1245727539062 732.7246704101562Q2557.2496337890625 686.599609375 2557.2496337890625 623.499755859375V327.499755859375H2660.1512451171875V615.599609375Q2660.1512451171875 679.6490478515625 2692.0259399414062 710.2738647460938Q2723.900634765625 740.898681640625 2780.500244140625 740.898681640625Q2844.4498291015625 740.898681640625 2882.7493896484375 698.5489501953125Q2921.0489501953125 656.19921875 2921.0489501953125 576.3499755859375V327.499755859375H3023.9505615234375V820.0H2923.0489501953125V746.2506103515625H2907.1488037109375Q2893.0489501953125 776.1502685546875 2857.2491455078125 802.4251098632812Q2821.4493408203125 828.699951171875 2750.599609375 828.699951171875Z"/><path d="M3417.4498291015625 834.0Q3345.7998046875 834.0 3288.3497314453125 803.8250122070312Q3230.899658203125 773.6500244140625 3197.599609375 716.6500244140625Q3164.299560546875 659.6500244140625 3164.299560546875 580.0499267578125V567.4498291015625Q3164.299560546875 487.499755859375 3197.599609375 430.67474365234375Q3230.899658203125 373.8497314453125 3288.3497314453125 343.67474365234375Q3345.7998046875 313.499755859375 3417.4498291015625 313.499755859375Q3488.099853515625 313.499755859375 3538.2249145507812 339.02471923828125Q3588.3499755859375 364.5496826171875 3618.4500732421875 407.69970703125Q3648.5501708984375 450.8497314453125 3657.500244140625 503.0499267578125L3557.5487060546875 524.1502685546875Q3553.19873046875 491.00048828125 3537.098876953125 464.02569580078125Q3520.9990234375 437.0509033203125 3491.8242797851562 421.12603759765625Q3462.6495361328125 405.201171875 3419.39990234375 405.201171875Q3376.1502685546875 405.201171875 3341.6255493164062 424.5009765625Q3307.100830078125 443.80078125 3287.1510009765625 480.50048828125Q3267.201171875 517.2001953125 3267.201171875 569.099853515625V578.39990234375Q3267.201171875 630.299560546875 3287.1510009765625 666.999267578125Q3307.100830078125 703.698974609375 3341.6255493164062 722.998779296875Q3376.1502685546875 742.298583984375 3419.39990234375 742.298583984375Q3484.4493408203125 742.298583984375 3518.3240356445312 708.598876953125Q3552.19873046875 674.899169921875 3560.898681640625 622.699462890625L3660.8502197265625 645.7498779296875Q3649.2501220703125 696.6500244140625 3618.800048828125 739.800048828125Q3588.3499755859375 782.9500732421875 3538.2249145507812 808.4750366210938Q3488.099853515625 834.0 3417.4498291015625 834.0Z"/><path d="M4017.599609375 834.0Q3943.2496337890625 834.0 3887.099609375 802.5Q3830.9495849609375 771.0 3799.6245727539062 713.6749877929688Q3768.299560546875 656.3499755859375 3768.299560546875 579.7498779296875V567.7498779296875Q3768.299560546875 490.7998046875 3799.299560546875 433.6497802734375Q3830.299560546875 376.499755859375 3885.7745971679688 344.999755859375Q3941.2496337890625 313.499755859375 4013.8497314453125 313.499755859375Q4085.099853515625 313.499755859375 4138.574890136719 344.599853515625Q4192.0499267578125 375.699951171875 4222.0499267578125 431.800048828125Q4252.0499267578125 487.900146484375 4252.0499267578125 563.2001953125V602.3504638671875H3872.501220703125Q3874.8511962890625 667.3494873046875 3916.6257934570312 705.4740600585938Q3958.400390625 743.5986328125 4020.19970703125 743.5986328125Q4078.4493408203125 743.5986328125 4107.824035644531 717.798828125Q4137.19873046875 691.9990234375 4152.6485595703125 658.0494384765625L4238.499755859375 701.5501708984375Q4224.1497802734375 730.0 4197.6497802734375 760.8499755859375Q4171.1497802734375 791.699951171875 4127.8497314453125 812.8499755859375Q4084.5496826171875 834.0 4017.599609375 834.0ZM3873.501220703125 523.0494384765625H4147.498291015625Q4143.498291015625 467.4503173828125 4107.223693847656 435.67572021484375Q4070.9490966796875 403.901123046875 4013.19970703125 403.901123046875Q3954.500244140625 403.901123046875 3918.20068359375 435.67572021484375Q3881.901123046875 467.4503173828125 3873.501220703125 523.0494384765625Z"/><path d="M4576.599609375 828.699951171875Q4520.699462890625 828.699951171875 4476.8494873046875 803.7748413085938Q4432.99951171875 778.8497314453125 4408.124572753906 732.7246704101562Q4383.2496337890625 686.599609375 4383.2496337890625 623.499755859375V327.499755859375H4486.1512451171875V615.599609375Q4486.1512451171875 679.6490478515625 4518.025939941406 710.2738647460938Q4549.900634765625 740.898681640625 4606.500244140625 740.898681640625Q4670.4498291015625 740.898681640625 4708.7493896484375 698.5489501953125Q4747.0489501953125 656.19921875 4747.0489501953125 576.3499755859375V327.499755859375H4849.9505615234375V820.0H4749.0489501953125V746.2506103515625H4733.1488037109375Q4719.0489501953125 776.1502685546875 4683.2491455078125 802.4251098632812Q4647.4493408203125 828.699951171875 4576.599609375 828.699951171875Z"/><path d="M5215.7498779296875 834.0Q5121.899658203125 834.0 5059.724670410156 792.0Q4997.5496826171875 750.0 4984.19970703125 665.3504638671875L5080.2510986328125 642.0Q5087.60107421875 683.299560546875 5106.90087890625 706.9743041992188Q5126.20068359375 730.6490478515625 5154.5504150390625 740.7239379882812Q5182.900146484375 750.798828125 5215.7498779296875 750.798828125Q5265.3494873046875 750.798828125 5291.774108886719 732.1490478515625Q5318.19873046875 713.499267578125 5318.19873046875 683.499755859375Q5318.19873046875 653.1502685546875 5293.124084472656 639.0753784179688Q5268.0494384765625 625.00048828125 5219.499755859375 616.300537109375L5185.2001953125 610.2506103515625Q5135.300048828125 600.9505615234375 5094.39990234375 583.800537109375Q5053.499755859375 566.6505126953125 5029.074645996094 536.700439453125Q5004.6495361328125 506.7503662109375 5004.6495361328125 460.2001953125Q5004.6495361328125 390.0499267578125 5057.074645996094 351.77484130859375Q5109.499755859375 313.499755859375 5195.39990234375 313.499755859375Q5278.39990234375 313.499755859375 5331.825012207031 350.67474365234375Q5385.2501220703125 387.8497314453125 5400.8502197265625 451.699462890625L5305.19873046875 479.300048828125Q5296.498779296875 434.300537109375 5267.4490966796875 415.500732421875Q5238.3994140625 396.700927734375 5195.39990234375 396.700927734375Q5152.7503662109375 396.700927734375 5128.8507080078125 412.17572021484375Q5104.9510498046875 427.6505126953125 5104.9510498046875 456.300048828125Q5104.9510498046875 485.899658203125 5128.4508056640625 499.8494873046875Q5151.9505615234375 513.79931640625 5192.2501220703125 520.8492431640625L5226.5496826171875 526.899169921875Q5280.4498291015625 536.19921875 5324.024963378906 552.3492431640625Q5367.60009765625 568.499267578125 5393.0501708984375 598.1243286132812Q5418.500244140625 627.7493896484375 5418.500244140625 677.6495361328125Q5418.500244140625 752.499755859375 5363.575134277344 793.2498779296875Q5308.6500244140625 834.0 5215.7498779296875 834.0Z"/></g>
</svg>
